{
  "asset": {
    "version": "2.0",
    "generator": "THREE.GLTFExporter"
  },
  "scenes": [
    {
      "nodes": [
        5
      ],
      "name": "AuxScene"
    }
  ],
  "scene": 0,
  "nodes": [
    {
      "matrix": [
        0.000007549789970973109,
        -99.99999999999972,
        -1.1102230246251565e-14,
        0,
        0.0000075497899654219935,
        5.773159728050814e-13,
        -99.99999999999972,
        0,
        62.55514526367152,
        0.000004722782079971851,
        0.000004722782083444359,
        0,
        204.2460174560547,
        0.00003309065868961625,
        -0.000005885767222935101,
        1
      ],
      "name": "Couro",
      "mesh": 0
    },
    {
      "matrix": [
        0.000007549789970973109,
        -99.99999999999972,
        -1.1102230246251565e-14,
        0,
        0.0000075497899654219935,
        5.773159728050814e-13,
        -99.99999999999972,
        0,
        62.55514526367152,
        0.000004722782079971851,
        0.000004722782083444359,
        0,
        224.04751586914062,
        0.0016777429264038801,
        -0.016795143485069275,
        1
      ],
      "name": "Satélite",
      "mesh": 1
    },
    {
      "matrix": [
        -0.4448374439251999,
        -0.7113491564977623,
        6.691574474570122e-9,
        0,
        1.3495687623624314e-7,
        -9.2286622986895e-8,
        -0.8389863371848901,
        0,
        94.56226763906317,
        -59.133882488076964,
        0.000021715603401138304,
        0,
        465.1196594238281,
        -0.15053153038024902,
        -9.268161420550314e-7,
        1
      ],
      "name": "Pinos",
      "mesh": 2
    },
    {
      "matrix": [
        6.0900044441223145,
        0,
        0,
        0,
        0,
        -5.655958288545002e-7,
        -3.4716024398803254,
        0,
        0,
        3.4716024398803254,
        -5.655958288545002e-7,
        0,
        551.3466186523438,
        -0.004088410641998053,
        -1.3431257217533243e-9,
        1
      ],
      "name": "Antenna",
      "mesh": 3
    },
    {
      "matrix": [
        0.000007549789970973109,
        -99.99999999999972,
        -1.1102230246251565e-14,
        0,
        0.0000075497899654219935,
        5.773159728050814e-13,
        -99.99999999999972,
        0,
        62.55514526367152,
        0.000004722782079971851,
        0.000004722782083444359,
        0,
        133.3134765625,
        -19.766599655151367,
        -0.000036685287341242656,
        1
      ],
      "name": "Placas",
      "mesh": 4
    },
    {
      "children": [
        0,
        1,
        2,
        3,
        4
      ]
    }
  ],
  "bufferViews": [
    {
      "buffer": 0,
      "byteOffset": 0,
      "byteLength": 59904,
      "target": 34962,
      "byteStride": 12
    },
    {
      "buffer": 0,
      "byteOffset": 59904,
      "byteLength": 59904,
      "target": 34962,
      "byteStride": 12
    },
    {
      "buffer": 0,
      "byteOffset": 119808,
      "byteLength": 39936,
      "target": 34962,
      "byteStride": 8
    },
    {
      "buffer": 0,
      "byteOffset": 159744,
      "byteLength": 9984,
      "target": 34963
    },
    {
      "buffer": 0,
      "byteOffset": 169728,
      "byteLength": 184032,
      "target": 34962,
      "byteStride": 12
    },
    {
      "buffer": 0,
      "byteOffset": 353760,
      "byteLength": 184032,
      "target": 34962,
      "byteStride": 12
    },
    {
      "buffer": 0,
      "byteOffset": 537792,
      "byteLength": 122688,
      "target": 34962,
      "byteStride": 8
    },
    {
      "buffer": 0,
      "byteOffset": 660480,
      "byteLength": 30672,
      "target": 34963
    },
    {
      "buffer": 0,
      "byteOffset": 691152,
      "byteLength": 8928,
      "target": 34962,
      "byteStride": 12
    },
    {
      "buffer": 0,
      "byteOffset": 700080,
      "byteLength": 8928,
      "target": 34962,
      "byteStride": 12
    },
    {
      "buffer": 0,
      "byteOffset": 709008,
      "byteLength": 5952,
      "target": 34962,
      "byteStride": 8
    },
    {
      "buffer": 0,
      "byteOffset": 714960,
      "byteLength": 1488,
      "target": 34963
    },
    {
      "buffer": 0,
      "byteOffset": 716448,
      "byteLength": 5616,
      "target": 34962,
      "byteStride": 12
    },
    {
      "buffer": 0,
      "byteOffset": 722064,
      "byteLength": 5616,
      "target": 34962,
      "byteStride": 12
    },
    {
      "buffer": 0,
      "byteOffset": 727680,
      "byteLength": 3744,
      "target": 34962,
      "byteStride": 8
    },
    {
      "buffer": 0,
      "byteOffset": 731424,
      "byteLength": 936,
      "target": 34963
    },
    {
      "buffer": 0,
      "byteOffset": 732360,
      "byteLength": 24768,
      "target": 34962,
      "byteStride": 12
    },
    {
      "buffer": 0,
      "byteOffset": 757128,
      "byteLength": 24768,
      "target": 34962,
      "byteStride": 12
    },
    {
      "buffer": 0,
      "byteOffset": 781896,
      "byteLength": 16512,
      "target": 34962,
      "byteStride": 8
    },
    {
      "buffer": 0,
      "byteOffset": 798408,
      "byteLength": 4128,
      "target": 34963
    }
  ],
  "buffers": [
    {
      "byteLength": 802536,
      "uri": "data:application/octet-stream;base64,"
    }
  ],
  "accessors": [
    {
      "bufferView": 0,
      "componentType": 5126,
      "count": 4992,
      "max": [
        0.6133847236633301,
        0.6133847832679749,
        0.30694150924682617
      ],
      "min": [
        -0.6133846640586853,
        -0.6133846044540405,
        -0.3195812702178955
      ],
      "type": "VEC3"
    },
    {
      "bufferView": 1,
      "componentType": 5126,
      "count": 4992,
      "max": [
        1,
        1,
        0.42435693740844727
      ],
      "min": [
        -1,
        -1,
        -0.6274859309196472
      ],
      "type": "VEC3"
    },
    {
      "bufferView": 2,
      "componentType": 5126,
      "count": 4992,
      "max": [
        0.9855298399925232,
        0.9851217269897461
      ],
      "min": [
        0.014470178633928299,
        0.014878296293318272
      ],
      "type": "VEC2"
    },
    {
      "bufferView": 3,
      "componentType": 5123,
      "count": 4992,
      "max": [
        4991
      ],
      "min": [
        0
      ],
      "type": "SCALAR"
    },
    {
      "bufferView": 4,
      "componentType": 5126,
      "count": 15336,
      "max": [
        1.9227018356323242,
        1.9225174188613892,
        5.119802474975586
      ],
      "min": [
        -1.9226677417755127,
        -1.922852635383606,
        -4.606305122375488
      ],
      "type": "VEC3"
    },
    {
      "bufferView": 5,
      "componentType": 5126,
      "count": 15336,
      "max": [
        1,
        1,
        1
      ],
      "min": [
        -1,
        -1,
        -1
      ],
      "type": "VEC3"
    },
    {
      "bufferView": 6,
      "componentType": 5126,
      "count": 15336,
      "max": [
        0.9972690939903259,
        0.9972346425056458
      ],
      "min": [
        0.002730943728238344,
        0.0027653733268380165
      ],
      "type": "VEC2"
    },
    {
      "bufferView": 7,
      "componentType": 5123,
      "count": 15336,
      "max": [
        15335
      ],
      "min": [
        0
      ],
      "type": "SCALAR"
    },
    {
      "bufferView": 8,
      "componentType": 5126,
      "count": 744,
      "max": [
        160.8704376220703,
        1.000030279159546,
        0.6282637715339661
      ],
      "min": [
        -58.65519714355469,
        -1.000032901763916,
        -1.1311399936676025
      ],
      "type": "VEC3"
    },
    {
      "bufferView": 9,
      "componentType": 5126,
      "count": 744,
      "max": [
        0.3035593330860138,
        0.9512317180633545,
        1
      ],
      "min": [
        -0.30355942249298096,
        -0.9512321352958679,
        -1
      ],
      "type": "VEC3"
    },
    {
      "bufferView": 10,
      "componentType": 5126,
      "count": 744,
      "max": [
        0.997086226940155,
        0.9998573660850525
      ],
      "min": [
        0.0029137420933693647,
        0.00014263371122069657
      ],
      "type": "VEC2"
    },
    {
      "bufferView": 11,
      "componentType": 5123,
      "count": 744,
      "max": [
        743
      ],
      "min": [
        0
      ],
      "type": "SCALAR"
    },
    {
      "bufferView": 12,
      "componentType": 5126,
      "count": 468,
      "max": [
        0.8941569328308105,
        1,
        1
      ],
      "min": [
        -1.4635947942733765,
        -1,
        -1
      ],
      "type": "VEC3"
    },
    {
      "bufferView": 13,
      "componentType": 5126,
      "count": 468,
      "max": [
        1,
        1,
        1
      ],
      "min": [
        -1,
        -1,
        -1
      ],
      "type": "VEC3"
    },
    {
      "bufferView": 14,
      "componentType": 5126,
      "count": 468,
      "max": [
        0.9947274923324585,
        0.9936419129371643
      ],
      "min": [
        0.005272580310702324,
        0.006358128506690264
      ],
      "type": "VEC2"
    },
    {
      "bufferView": 15,
      "componentType": 5123,
      "count": 468,
      "max": [
        467
      ],
      "min": [
        0
      ],
      "type": "SCALAR"
    },
    {
      "bufferView": 16,
      "componentType": 5126,
      "count": 2064,
      "max": [
        0.1573018729686737,
        5.009528160095215,
        1.533766508102417
      ],
      "min": [
        -0.19766634702682495,
        -5.009529113769531,
        -1.533427357673645
      ],
      "type": "VEC3"
    },
    {
      "bufferView": 17,
      "componentType": 5126,
      "count": 2064,
      "max": [
        0.999133288860321,
        1,
        1
      ],
      "min": [
        -0.999133288860321,
        -1,
        -1
      ],
      "type": "VEC3"
    },
    {
      "bufferView": 18,
      "componentType": 5126,
      "count": 2064,
      "max": [
        0.9971478581428528,
        0.9972753524780273
      ],
      "min": [
        0.0028521306812763214,
        0.0027247134130448103
      ],
      "type": "VEC2"
    },
    {
      "bufferView": 19,
      "componentType": 5123,
      "count": 2064,
      "max": [
        2063
      ],
      "min": [
        0
      ],
      "type": "SCALAR"
    }
  ],
  "materials": [
    {
      "pbrMetallicRoughness": {
        "baseColorFactor": [
          0.800000011920929,
          0.800000011920929,
          0.800000011920929,
          1
        ],
        "metallicFactor": 0.5,
        "roughnessFactor": 0.5
      },
      "name": "Couro"
    },
    {
      "pbrMetallicRoughness": {
        "baseColorFactor": [
          0.800000011920929,
          0.800000011920929,
          0.800000011920929,
          1
        ],
        "metallicFactor": 0.5,
        "roughnessFactor": 0.5
      },
      "name": "Satélite"
    },
    {
      "pbrMetallicRoughness": {
        "baseColorFactor": [
          0.800000011920929,
          0.800000011920929,
          0.800000011920929,
          1
        ],
        "metallicFactor": 0.5,
        "roughnessFactor": 0.5
      },
      "name": "Pinos"
    },
    {
      "pbrMetallicRoughness": {
        "baseColorFactor": [
          0.8,
          0.8,
          0.8,
          1
        ],
        "metallicFactor": 0.5,
        "roughnessFactor": 0.5
      }
    },
    {
      "pbrMetallicRoughness": {
        "baseColorFactor": [
          0.800000011920929,
          0.800000011920929,
          0.800000011920929,
          1
        ],
        "metallicFactor": 0.5,
        "roughnessFactor": 0.5
      },
      "name": "Placas"
    }
  ],
  "meshes": [
    {
      "primitives": [
        {
          "mode": 4,
          "attributes": {
            "POSITION": 0,
            "NORMAL": 1,
            "TEXCOORD_0": 2
          },
          "indices": 3,
          "material": 0
        }
      ]
    },
    {
      "primitives": [
        {
          "mode": 4,
          "attributes": {
            "POSITION": 4,
            "NORMAL": 5,
            "TEXCOORD_0": 6
          },
          "indices": 7,
          "material": 1
        }
      ]
    },
    {
      "primitives": [
        {
          "mode": 4,
          "attributes": {
            "POSITION": 8,
            "NORMAL": 9,
            "TEXCOORD_0": 10
          },
          "indices": 11,
          "material": 2
        }
      ]
    },
    {
      "primitives": [
        {
          "mode": 4,
          "attributes": {
            "POSITION": 12,
            "NORMAL": 13,
            "TEXCOORD_0": 14
          },
          "indices": 15,
          "material": 3
        }
      ]
    },
    {
      "primitives": [
        {
          "mode": 4,
          "attributes": {
            "POSITION": 16,
            "NORMAL": 17,
            "TEXCOORD_0": 18
          },
          "indices": 19,
          "material": 4
        }
      ]
    }
  ]
}